<mxfile host="app.diagrams.net" modified="2023-02-28T18:23:04.197Z" agent="5.0 (Windows NT 10.0; Win64; x64) AppleWebKit/537.36 (KHTML, like Gecko) Chrome/110.0.0.0 Safari/537.36" etag="i5HnrZt-nmSYA2C35Vqu" version="20.8.23" type="github">
  <diagram name="Page-1" id="LttQBpCLUfvgUoXey-WF">
    <mxGraphModel dx="2022" dy="645" grid="1" gridSize="10" guides="1" tooltips="1" connect="1" arrows="1" fold="1" page="1" pageScale="1" pageWidth="827" pageHeight="1169" math="0" shadow="0">
      <root>
        <mxCell id="0" />
        <mxCell id="1" parent="0" />
        <mxCell id="A1muTueMpZK0xxC5i3c8-66" value="" style="ellipse;whiteSpace=wrap;html=1;labelBackgroundColor=none;fillColor=none;rotation=105;" parent="1" vertex="1">
          <mxGeometry x="2.41" y="573.15" width="120" height="122.5" as="geometry" />
        </mxCell>
        <mxCell id="A1muTueMpZK0xxC5i3c8-60" value="" style="ellipse;whiteSpace=wrap;html=1;labelBackgroundColor=none;fillColor=none;rotation=0;" parent="1" vertex="1">
          <mxGeometry x="260" y="510" width="160" height="150" as="geometry" />
        </mxCell>
        <mxCell id="A1muTueMpZK0xxC5i3c8-49" value="" style="ellipse;whiteSpace=wrap;html=1;labelBackgroundColor=none;fillColor=none;rotation=-10;" parent="1" vertex="1">
          <mxGeometry x="380" y="284.66999999999996" width="120" height="100.66" as="geometry" />
        </mxCell>
        <mxCell id="A1muTueMpZK0xxC5i3c8-46" value="" style="ellipse;whiteSpace=wrap;html=1;labelBackgroundColor=none;fillColor=none;rotation=0;" parent="1" vertex="1">
          <mxGeometry x="500" y="460" width="240" height="117.5" as="geometry" />
        </mxCell>
        <mxCell id="A1muTueMpZK0xxC5i3c8-28" value="" style="ellipse;whiteSpace=wrap;html=1;labelBackgroundColor=none;fillColor=none;rotation=0;" parent="1" vertex="1">
          <mxGeometry x="30" y="22.5" width="250" height="217.5" as="geometry" />
        </mxCell>
        <mxCell id="A1muTueMpZK0xxC5i3c8-25" value="" style="ellipse;whiteSpace=wrap;html=1;aspect=fixed;labelBackgroundColor=none;textOpacity=0;fillColor=none;" parent="1" vertex="1">
          <mxGeometry x="20" y="375" width="80" height="80" as="geometry" />
        </mxCell>
        <mxCell id="A1muTueMpZK0xxC5i3c8-27" value="" style="ellipse;whiteSpace=wrap;html=1;labelBackgroundColor=none;fillColor=none;rotation=30;" parent="1" vertex="1">
          <mxGeometry x="128.85" y="329.53" width="191.43" height="135.41" as="geometry" />
        </mxCell>
        <mxCell id="A1muTueMpZK0xxC5i3c8-12" style="edgeStyle=none;rounded=0;orthogonalLoop=1;jettySize=auto;html=1;endArrow=none;endFill=0;strokeWidth=2;" parent="1" source="A1muTueMpZK0xxC5i3c8-1" target="A1muTueMpZK0xxC5i3c8-10" edge="1">
          <mxGeometry relative="1" as="geometry" />
        </mxCell>
        <mxCell id="A1muTueMpZK0xxC5i3c8-16" style="edgeStyle=none;rounded=0;orthogonalLoop=1;jettySize=auto;html=1;exitX=0.88;exitY=0.9;exitDx=0;exitDy=0;exitPerimeter=0;endArrow=none;endFill=0;strokeWidth=2;" parent="1" source="A1muTueMpZK0xxC5i3c8-1" target="A1muTueMpZK0xxC5i3c8-15" edge="1">
          <mxGeometry relative="1" as="geometry" />
        </mxCell>
        <mxCell id="A1muTueMpZK0xxC5i3c8-1" value="&lt;b&gt;R12&lt;/b&gt;" style="shape=mxgraph.cisco.routers.router;sketch=0;html=1;pointerEvents=1;dashed=0;fillColor=#036897;strokeColor=#ffffff;strokeWidth=2;verticalLabelPosition=middle;verticalAlign=middle;align=center;outlineConnect=0;labelPosition=center;" parent="1" vertex="1">
          <mxGeometry x="70" y="140" width="40" height="30" as="geometry" />
        </mxCell>
        <mxCell id="A1muTueMpZK0xxC5i3c8-13" style="edgeStyle=none;rounded=0;orthogonalLoop=1;jettySize=auto;html=1;exitX=0.5;exitY=0;exitDx=0;exitDy=0;exitPerimeter=0;endArrow=none;endFill=0;strokeWidth=2;" parent="1" target="A1muTueMpZK0xxC5i3c8-11" edge="1">
          <mxGeometry relative="1" as="geometry">
            <mxPoint x="210" y="140" as="sourcePoint" />
          </mxGeometry>
        </mxCell>
        <mxCell id="A1muTueMpZK0xxC5i3c8-10" value="&lt;b style=&quot;&quot;&gt;U10&lt;/b&gt;" style="sketch=0;pointerEvents=1;shadow=0;dashed=0;html=1;strokeColor=none;fillColor=#434445;aspect=fixed;labelPosition=center;verticalLabelPosition=middle;verticalAlign=middle;align=center;outlineConnect=0;shape=mxgraph.vvd.laptop;" parent="1" vertex="1">
          <mxGeometry x="70" y="60" width="41.67" height="30" as="geometry" />
        </mxCell>
        <mxCell id="A1muTueMpZK0xxC5i3c8-11" value="&lt;b&gt;U11&lt;/b&gt;" style="sketch=0;pointerEvents=1;shadow=0;dashed=0;html=1;strokeColor=none;fillColor=#434445;aspect=fixed;labelPosition=center;verticalLabelPosition=middle;verticalAlign=middle;align=center;outlineConnect=0;shape=mxgraph.vvd.laptop;" parent="1" vertex="1">
          <mxGeometry x="189.16" y="60" width="41.67" height="30" as="geometry" />
        </mxCell>
        <mxCell id="A1muTueMpZK0xxC5i3c8-17" style="edgeStyle=none;rounded=0;orthogonalLoop=1;jettySize=auto;html=1;exitX=0.12;exitY=0.9;exitDx=0;exitDy=0;exitPerimeter=0;endArrow=none;endFill=0;strokeWidth=2;" parent="1" source="A1muTueMpZK0xxC5i3c8-14" target="A1muTueMpZK0xxC5i3c8-15" edge="1">
          <mxGeometry relative="1" as="geometry" />
        </mxCell>
        <mxCell id="A1muTueMpZK0xxC5i3c8-14" value="&lt;b&gt;R11&lt;/b&gt;" style="shape=mxgraph.cisco.routers.router;sketch=0;html=1;pointerEvents=1;dashed=0;fillColor=#036897;strokeColor=#ffffff;strokeWidth=2;verticalLabelPosition=middle;verticalAlign=middle;align=center;outlineConnect=0;labelPosition=center;" parent="1" vertex="1">
          <mxGeometry x="190.82999999999998" y="140" width="40" height="30" as="geometry" />
        </mxCell>
        <mxCell id="A1muTueMpZK0xxC5i3c8-21" style="edgeStyle=none;rounded=0;orthogonalLoop=1;jettySize=auto;html=1;exitX=0.5;exitY=1;exitDx=0;exitDy=0;exitPerimeter=0;entryX=0.5;entryY=0;entryDx=0;entryDy=0;entryPerimeter=0;endArrow=none;endFill=0;strokeWidth=2;" parent="1" source="A1muTueMpZK0xxC5i3c8-15" target="A1muTueMpZK0xxC5i3c8-18" edge="1">
          <mxGeometry relative="1" as="geometry" />
        </mxCell>
        <mxCell id="A1muTueMpZK0xxC5i3c8-15" value="&lt;b&gt;R10&lt;/b&gt;" style="shape=mxgraph.cisco.routers.router;sketch=0;html=1;pointerEvents=1;dashed=0;fillColor=#036897;strokeColor=#ffffff;strokeWidth=2;verticalLabelPosition=middle;verticalAlign=middle;align=center;outlineConnect=0;labelPosition=center;" parent="1" vertex="1">
          <mxGeometry x="130" y="220" width="40" height="30" as="geometry" />
        </mxCell>
        <mxCell id="A1muTueMpZK0xxC5i3c8-22" style="edgeStyle=none;rounded=0;orthogonalLoop=1;jettySize=auto;html=1;exitX=0.12;exitY=0.9;exitDx=0;exitDy=0;exitPerimeter=0;entryX=0.88;entryY=0.1;entryDx=0;entryDy=0;entryPerimeter=0;endArrow=none;endFill=0;strokeWidth=2;" parent="1" source="A1muTueMpZK0xxC5i3c8-18" target="A1muTueMpZK0xxC5i3c8-20" edge="1">
          <mxGeometry relative="1" as="geometry" />
        </mxCell>
        <mxCell id="A1muTueMpZK0xxC5i3c8-23" style="edgeStyle=none;rounded=0;orthogonalLoop=1;jettySize=auto;html=1;exitX=0.88;exitY=0.9;exitDx=0;exitDy=0;exitPerimeter=0;entryX=0.5;entryY=0;entryDx=0;entryDy=0;entryPerimeter=0;endArrow=none;endFill=0;strokeWidth=2;" parent="1" source="A1muTueMpZK0xxC5i3c8-18" target="A1muTueMpZK0xxC5i3c8-19" edge="1">
          <mxGeometry relative="1" as="geometry" />
        </mxCell>
        <mxCell id="A1muTueMpZK0xxC5i3c8-29" style="edgeStyle=none;rounded=0;orthogonalLoop=1;jettySize=auto;html=1;endArrow=none;endFill=0;strokeWidth=2;" parent="1" source="A1muTueMpZK0xxC5i3c8-18" target="A1muTueMpZK0xxC5i3c8-24" edge="1">
          <mxGeometry relative="1" as="geometry" />
        </mxCell>
        <mxCell id="A1muTueMpZK0xxC5i3c8-18" value="&lt;b&gt;R20&lt;/b&gt;" style="shape=mxgraph.cisco.routers.router;sketch=0;html=1;pointerEvents=1;dashed=0;fillColor=#036897;strokeColor=#ffffff;strokeWidth=2;verticalLabelPosition=middle;verticalAlign=middle;align=center;outlineConnect=0;labelPosition=center;" parent="1" vertex="1">
          <mxGeometry x="130" y="320" width="40" height="30" as="geometry" />
        </mxCell>
        <mxCell id="A1muTueMpZK0xxC5i3c8-68" style="edgeStyle=none;rounded=0;orthogonalLoop=1;jettySize=auto;html=1;exitX=0.88;exitY=0.9;exitDx=0;exitDy=0;exitPerimeter=0;endArrow=none;endFill=0;strokeWidth=2;" parent="1" source="A1muTueMpZK0xxC5i3c8-19" target="A1muTueMpZK0xxC5i3c8-67" edge="1">
          <mxGeometry relative="1" as="geometry" />
        </mxCell>
        <mxCell id="A1muTueMpZK0xxC5i3c8-19" value="&lt;b&gt;R21&lt;/b&gt;" style="shape=mxgraph.cisco.routers.router;sketch=0;html=1;pointerEvents=1;dashed=0;fillColor=#036897;strokeColor=#ffffff;strokeWidth=2;verticalLabelPosition=middle;verticalAlign=middle;align=center;outlineConnect=0;labelPosition=center;" parent="1" vertex="1">
          <mxGeometry x="180" y="375" width="40" height="30" as="geometry" />
        </mxCell>
        <mxCell id="A1muTueMpZK0xxC5i3c8-52" style="edgeStyle=none;rounded=0;orthogonalLoop=1;jettySize=auto;html=1;endArrow=none;endFill=0;strokeWidth=2;" parent="1" source="A1muTueMpZK0xxC5i3c8-20" target="A1muTueMpZK0xxC5i3c8-51" edge="1">
          <mxGeometry relative="1" as="geometry" />
        </mxCell>
        <mxCell id="A1muTueMpZK0xxC5i3c8-69" style="edgeStyle=none;rounded=0;orthogonalLoop=1;jettySize=auto;html=1;exitX=0.88;exitY=0.9;exitDx=0;exitDy=0;exitPerimeter=0;endArrow=none;endFill=0;strokeWidth=2;" parent="1" source="A1muTueMpZK0xxC5i3c8-20" target="A1muTueMpZK0xxC5i3c8-53" edge="1">
          <mxGeometry relative="1" as="geometry">
            <Array as="points">
              <mxPoint x="140" y="530" />
            </Array>
          </mxGeometry>
        </mxCell>
        <mxCell id="A1muTueMpZK0xxC5i3c8-20" value="&lt;b&gt;R30&lt;/b&gt;" style="shape=mxgraph.cisco.routers.router;sketch=0;html=1;pointerEvents=1;dashed=0;fillColor=#036897;strokeColor=#ffffff;strokeWidth=2;verticalLabelPosition=middle;verticalAlign=middle;align=center;outlineConnect=0;labelPosition=center;" parent="1" vertex="1">
          <mxGeometry x="40" y="400" width="40" height="30" as="geometry" />
        </mxCell>
        <mxCell id="A1muTueMpZK0xxC5i3c8-50" style="edgeStyle=none;rounded=0;orthogonalLoop=1;jettySize=auto;html=1;exitX=1;exitY=0.5;exitDx=0;exitDy=0;exitPerimeter=0;endArrow=none;endFill=0;strokeWidth=2;" parent="1" source="A1muTueMpZK0xxC5i3c8-24" target="A1muTueMpZK0xxC5i3c8-47" edge="1">
          <mxGeometry relative="1" as="geometry" />
        </mxCell>
        <mxCell id="A1muTueMpZK0xxC5i3c8-24" value="&lt;b&gt;R40&lt;/b&gt;" style="shape=mxgraph.cisco.routers.router;sketch=0;html=1;pointerEvents=1;dashed=0;fillColor=#036897;strokeColor=#ffffff;strokeWidth=2;verticalLabelPosition=middle;verticalAlign=middle;align=center;outlineConnect=0;labelPosition=center;" parent="1" vertex="1">
          <mxGeometry x="360" y="320" width="40" height="30" as="geometry" />
        </mxCell>
        <mxCell id="A1muTueMpZK0xxC5i3c8-37" style="edgeStyle=none;rounded=0;orthogonalLoop=1;jettySize=auto;html=1;endArrow=none;endFill=0;exitX=0.5;exitY=1;exitDx=0;exitDy=0;exitPerimeter=0;strokeWidth=2;" parent="1" source="A1muTueMpZK0xxC5i3c8-24" target="A1muTueMpZK0xxC5i3c8-36" edge="1">
          <mxGeometry relative="1" as="geometry">
            <mxPoint x="380" y="460" as="sourcePoint" />
          </mxGeometry>
        </mxCell>
        <mxCell id="A1muTueMpZK0xxC5i3c8-38" style="edgeStyle=none;rounded=0;orthogonalLoop=1;jettySize=auto;html=1;exitX=1;exitY=0.5;exitDx=0;exitDy=0;exitPerimeter=0;entryX=0;entryY=0.5;entryDx=0;entryDy=0;entryPerimeter=0;endArrow=none;endFill=0;strokeWidth=2;" parent="1" source="A1muTueMpZK0xxC5i3c8-34" target="A1muTueMpZK0xxC5i3c8-36" edge="1">
          <mxGeometry relative="1" as="geometry" />
        </mxCell>
        <mxCell id="A1muTueMpZK0xxC5i3c8-70" style="edgeStyle=none;rounded=0;orthogonalLoop=1;jettySize=auto;html=1;exitX=0.12;exitY=0.1;exitDx=0;exitDy=0;exitPerimeter=0;entryX=1;entryY=0.5;entryDx=0;entryDy=0;entryPerimeter=0;endArrow=none;endFill=0;strokeWidth=2;" parent="1" source="A1muTueMpZK0xxC5i3c8-34" target="A1muTueMpZK0xxC5i3c8-20" edge="1">
          <mxGeometry relative="1" as="geometry">
            <Array as="points">
              <mxPoint x="170" y="460" />
            </Array>
          </mxGeometry>
        </mxCell>
        <mxCell id="A1muTueMpZK0xxC5i3c8-34" value="&lt;b&gt;R60a&lt;/b&gt;" style="shape=mxgraph.cisco.routers.router;sketch=0;html=1;pointerEvents=1;dashed=0;fillColor=#036897;strokeColor=#ffffff;strokeWidth=2;verticalLabelPosition=middle;verticalAlign=middle;align=center;outlineConnect=0;labelPosition=center;labelBackgroundColor=none;" parent="1" vertex="1">
          <mxGeometry x="248.32999999999998" y="520" width="40" height="30" as="geometry" />
        </mxCell>
        <mxCell id="A1muTueMpZK0xxC5i3c8-40" style="edgeStyle=none;rounded=0;orthogonalLoop=1;jettySize=auto;html=1;exitX=1;exitY=0.5;exitDx=0;exitDy=0;exitPerimeter=0;endArrow=none;endFill=0;strokeWidth=2;" parent="1" source="A1muTueMpZK0xxC5i3c8-36" target="A1muTueMpZK0xxC5i3c8-39" edge="1">
          <mxGeometry relative="1" as="geometry" />
        </mxCell>
        <mxCell id="A1muTueMpZK0xxC5i3c8-65" style="edgeStyle=none;rounded=0;orthogonalLoop=1;jettySize=auto;html=1;exitX=0.5;exitY=1;exitDx=0;exitDy=0;exitPerimeter=0;entryX=0.5;entryY=0;entryDx=0;entryDy=0;entryPerimeter=0;endArrow=none;endFill=0;strokeWidth=2;" parent="1" source="A1muTueMpZK0xxC5i3c8-36" target="A1muTueMpZK0xxC5i3c8-63" edge="1">
          <mxGeometry relative="1" as="geometry" />
        </mxCell>
        <mxCell id="A1muTueMpZK0xxC5i3c8-36" value="&lt;b&gt;R60b&lt;/b&gt;" style="shape=mxgraph.cisco.routers.router;sketch=0;html=1;pointerEvents=1;dashed=0;fillColor=#036897;strokeColor=#ffffff;strokeWidth=2;verticalLabelPosition=middle;verticalAlign=middle;align=center;outlineConnect=0;labelPosition=center;labelBackgroundColor=none;" parent="1" vertex="1">
          <mxGeometry x="360" y="520" width="40" height="30" as="geometry" />
        </mxCell>
        <mxCell id="A1muTueMpZK0xxC5i3c8-42" style="edgeStyle=none;rounded=0;orthogonalLoop=1;jettySize=auto;html=1;endArrow=none;endFill=0;strokeWidth=2;" parent="1" source="A1muTueMpZK0xxC5i3c8-39" target="A1muTueMpZK0xxC5i3c8-41" edge="1">
          <mxGeometry relative="1" as="geometry" />
        </mxCell>
        <mxCell id="A1muTueMpZK0xxC5i3c8-39" value="&lt;b&gt;R70&lt;/b&gt;" style="shape=mxgraph.cisco.routers.router;sketch=0;html=1;pointerEvents=1;dashed=0;fillColor=#036897;strokeColor=#ffffff;strokeWidth=2;verticalLabelPosition=middle;verticalAlign=middle;align=center;outlineConnect=0;labelPosition=center;labelBackgroundColor=none;" parent="1" vertex="1">
          <mxGeometry x="490" y="510" width="40" height="30" as="geometry" />
        </mxCell>
        <mxCell id="A1muTueMpZK0xxC5i3c8-44" style="edgeStyle=none;rounded=0;orthogonalLoop=1;jettySize=auto;html=1;exitX=1;exitY=0.5;exitDx=0;exitDy=0;exitPerimeter=0;endArrow=none;endFill=0;strokeWidth=2;" parent="1" source="A1muTueMpZK0xxC5i3c8-41" target="A1muTueMpZK0xxC5i3c8-45" edge="1">
          <mxGeometry relative="1" as="geometry">
            <mxPoint x="680" y="525" as="targetPoint" />
          </mxGeometry>
        </mxCell>
        <mxCell id="A1muTueMpZK0xxC5i3c8-41" value="&lt;b&gt;R71&lt;/b&gt;" style="shape=mxgraph.cisco.routers.router;sketch=0;html=1;pointerEvents=1;dashed=0;fillColor=#036897;strokeColor=#ffffff;strokeWidth=2;verticalLabelPosition=middle;verticalAlign=middle;align=center;outlineConnect=0;labelPosition=center;labelBackgroundColor=none;" parent="1" vertex="1">
          <mxGeometry x="580" y="510" width="40" height="30" as="geometry" />
        </mxCell>
        <mxCell id="A1muTueMpZK0xxC5i3c8-45" value="&lt;b&gt;U70&lt;/b&gt;" style="sketch=0;pointerEvents=1;shadow=0;dashed=0;html=1;strokeColor=none;fillColor=#434445;aspect=fixed;labelPosition=center;verticalLabelPosition=middle;verticalAlign=middle;align=center;outlineConnect=0;shape=mxgraph.vvd.laptop;" parent="1" vertex="1">
          <mxGeometry x="690" y="510" width="41.67" height="30" as="geometry" />
        </mxCell>
        <mxCell id="A1muTueMpZK0xxC5i3c8-47" value="&lt;b&gt;U40&lt;/b&gt;" style="sketch=0;pointerEvents=1;shadow=0;dashed=0;html=1;strokeColor=none;fillColor=#434445;aspect=fixed;labelPosition=center;verticalLabelPosition=middle;verticalAlign=middle;align=center;outlineConnect=0;shape=mxgraph.vvd.laptop;" parent="1" vertex="1">
          <mxGeometry x="430" y="340" width="41.67" height="30" as="geometry" />
        </mxCell>
        <mxCell id="A1muTueMpZK0xxC5i3c8-54" style="edgeStyle=none;rounded=0;orthogonalLoop=1;jettySize=auto;html=1;endArrow=none;endFill=0;endSize=2;strokeWidth=2;" parent="1" source="A1muTueMpZK0xxC5i3c8-51" target="A1muTueMpZK0xxC5i3c8-53" edge="1">
          <mxGeometry relative="1" as="geometry" />
        </mxCell>
        <mxCell id="A1muTueMpZK0xxC5i3c8-59" style="edgeStyle=none;rounded=0;orthogonalLoop=1;jettySize=auto;html=1;exitX=0.5;exitY=1;exitDx=0;exitDy=0;exitPerimeter=0;endArrow=none;endFill=0;strokeWidth=2;" parent="1" source="A1muTueMpZK0xxC5i3c8-51" target="A1muTueMpZK0xxC5i3c8-58" edge="1">
          <mxGeometry relative="1" as="geometry" />
        </mxCell>
        <mxCell id="A1muTueMpZK0xxC5i3c8-51" value="&lt;b&gt;R50&lt;/b&gt;" style="shape=mxgraph.cisco.routers.router;sketch=0;html=1;pointerEvents=1;dashed=0;fillColor=#036897;strokeColor=#ffffff;strokeWidth=2;verticalLabelPosition=middle;verticalAlign=middle;align=center;outlineConnect=0;labelPosition=center;labelBackgroundColor=none;" parent="1" vertex="1">
          <mxGeometry x="40" y="555" width="40" height="30" as="geometry" />
        </mxCell>
        <mxCell id="A1muTueMpZK0xxC5i3c8-64" style="edgeStyle=none;rounded=0;orthogonalLoop=1;jettySize=auto;html=1;endArrow=none;endFill=0;strokeWidth=2;" parent="1" source="A1muTueMpZK0xxC5i3c8-53" target="A1muTueMpZK0xxC5i3c8-63" edge="1">
          <mxGeometry relative="1" as="geometry" />
        </mxCell>
        <mxCell id="A1muTueMpZK0xxC5i3c8-53" value="&lt;b&gt;R60C&lt;/b&gt;" style="shape=mxgraph.cisco.routers.router;sketch=0;html=1;pointerEvents=1;dashed=0;fillColor=#036897;strokeColor=#ffffff;strokeWidth=2;verticalLabelPosition=middle;verticalAlign=middle;align=center;outlineConnect=0;labelPosition=center;labelBackgroundColor=none;" parent="1" vertex="1">
          <mxGeometry x="250" y="600" width="40" height="30" as="geometry" />
        </mxCell>
        <mxCell id="A1muTueMpZK0xxC5i3c8-58" value="&lt;b&gt;U50&lt;/b&gt;" style="sketch=0;pointerEvents=1;shadow=0;dashed=0;html=1;strokeColor=none;fillColor=#434445;aspect=fixed;labelPosition=center;verticalLabelPosition=middle;verticalAlign=middle;align=center;outlineConnect=0;shape=mxgraph.vvd.laptop;" parent="1" vertex="1">
          <mxGeometry x="38.329999999999984" y="640" width="41.67" height="30" as="geometry" />
        </mxCell>
        <mxCell id="A1muTueMpZK0xxC5i3c8-61" style="edgeStyle=none;rounded=0;orthogonalLoop=1;jettySize=auto;html=1;exitX=1;exitY=0.5;exitDx=0;exitDy=0;exitPerimeter=0;endArrow=none;endFill=0;" parent="1" source="A1muTueMpZK0xxC5i3c8-53" target="A1muTueMpZK0xxC5i3c8-53" edge="1">
          <mxGeometry relative="1" as="geometry" />
        </mxCell>
        <mxCell id="A1muTueMpZK0xxC5i3c8-63" value="&lt;b&gt;P60&lt;/b&gt;" style="shape=mxgraph.cisco.routers.router;sketch=0;html=1;pointerEvents=1;dashed=0;fillColor=#036897;strokeColor=#ffffff;strokeWidth=2;verticalLabelPosition=middle;verticalAlign=middle;align=center;outlineConnect=0;labelPosition=center;labelBackgroundColor=none;" parent="1" vertex="1">
          <mxGeometry x="360" y="600" width="40" height="30" as="geometry" />
        </mxCell>
        <mxCell id="A1muTueMpZK0xxC5i3c8-67" value="&lt;b&gt;U20&lt;/b&gt;" style="sketch=0;pointerEvents=1;shadow=0;dashed=0;html=1;strokeColor=none;fillColor=#434445;aspect=fixed;labelPosition=center;verticalLabelPosition=middle;verticalAlign=middle;align=center;outlineConnect=0;shape=mxgraph.vvd.laptop;" parent="1" vertex="1">
          <mxGeometry x="248.33" y="425" width="41.67" height="30" as="geometry" />
        </mxCell>
        <mxCell id="x69w11OwwkDyo-feMg2V-1" value="&lt;font style=&quot;font-size: 9px;&quot;&gt;17.30.8.0/30&lt;/font&gt;" style="text;strokeColor=none;fillColor=none;html=1;fontSize=9;fontStyle=1;verticalAlign=middle;align=center;" vertex="1" parent="1">
          <mxGeometry x="140" y="280" width="80" height="10" as="geometry" />
        </mxCell>
        <mxCell id="x69w11OwwkDyo-feMg2V-2" value=".2" style="text;strokeColor=none;fillColor=none;html=1;fontSize=9;fontStyle=1;verticalAlign=middle;align=center;" vertex="1" parent="1">
          <mxGeometry x="115" y="250" width="80" height="10" as="geometry" />
        </mxCell>
        <mxCell id="x69w11OwwkDyo-feMg2V-3" value=".1" style="text;strokeColor=none;fillColor=none;html=1;fontSize=9;fontStyle=1;verticalAlign=middle;align=center;" vertex="1" parent="1">
          <mxGeometry x="115" y="310" width="80" height="10" as="geometry" />
        </mxCell>
        <mxCell id="x69w11OwwkDyo-feMg2V-4" value="20.10.1.0/30," style="text;strokeColor=none;fillColor=none;html=1;fontSize=9;fontStyle=1;verticalAlign=middle;align=center;" vertex="1" parent="1">
          <mxGeometry x="168.32999999999998" y="190" width="80" height="10" as="geometry" />
        </mxCell>
        <mxCell id="x69w11OwwkDyo-feMg2V-5" value="(20.10.2.0/30" style="text;strokeColor=none;fillColor=none;html=1;fontSize=9;fontStyle=1;verticalAlign=middle;align=center;" vertex="1" parent="1">
          <mxGeometry x="50.83" y="190" width="80" height="10" as="geometry" />
        </mxCell>
        <mxCell id="x69w11OwwkDyo-feMg2V-6" value=".2" style="text;strokeColor=none;fillColor=none;html=1;fontSize=9;fontStyle=1;verticalAlign=middle;align=center;" vertex="1" parent="1">
          <mxGeometry x="130.83" y="210" width="80" height="10" as="geometry" />
        </mxCell>
        <mxCell id="x69w11OwwkDyo-feMg2V-7" value=".2" style="text;strokeColor=none;fillColor=none;html=1;fontSize=9;fontStyle=1;verticalAlign=middle;align=center;" vertex="1" parent="1">
          <mxGeometry x="90" y="210" width="80" height="10" as="geometry" />
        </mxCell>
        <mxCell id="x69w11OwwkDyo-feMg2V-8" value=".1" style="text;strokeColor=none;fillColor=none;html=1;fontSize=9;fontStyle=1;verticalAlign=middle;align=center;" vertex="1" parent="1">
          <mxGeometry x="60" y="170" width="80" height="10" as="geometry" />
        </mxCell>
        <mxCell id="x69w11OwwkDyo-feMg2V-9" value=".1" style="text;strokeColor=none;fillColor=none;html=1;fontSize=9;fontStyle=1;verticalAlign=middle;align=center;" vertex="1" parent="1">
          <mxGeometry x="160" y="170" width="80" height="10" as="geometry" />
        </mxCell>
        <mxCell id="x69w11OwwkDyo-feMg2V-10" value=".1" style="text;strokeColor=none;fillColor=none;html=1;fontSize=9;fontStyle=1;verticalAlign=middle;align=center;" vertex="1" parent="1">
          <mxGeometry x="160" y="130" width="80" height="10" as="geometry" />
        </mxCell>
        <mxCell id="x69w11OwwkDyo-feMg2V-11" value=".1" style="text;strokeColor=none;fillColor=none;html=1;fontSize=9;fontStyle=1;verticalAlign=middle;align=center;" vertex="1" parent="1">
          <mxGeometry x="40" y="130" width="80" height="10" as="geometry" />
        </mxCell>
        <mxCell id="x69w11OwwkDyo-feMg2V-12" value=".2" style="text;strokeColor=none;fillColor=none;html=1;fontSize=9;fontStyle=1;verticalAlign=middle;align=center;" vertex="1" parent="1">
          <mxGeometry x="160" y="90" width="80" height="10" as="geometry" />
        </mxCell>
        <mxCell id="x69w11OwwkDyo-feMg2V-13" value=".2" style="text;strokeColor=none;fillColor=none;html=1;fontSize=9;fontStyle=1;verticalAlign=middle;align=center;" vertex="1" parent="1">
          <mxGeometry x="40" y="90" width="80" height="10" as="geometry" />
        </mxCell>
        <mxCell id="x69w11OwwkDyo-feMg2V-14" value="20.10.3.0/24" style="text;strokeColor=none;fillColor=none;html=1;fontSize=9;fontStyle=1;verticalAlign=middle;align=center;" vertex="1" parent="1">
          <mxGeometry x="19.99999999999997" y="110" width="80" height="10" as="geometry" />
        </mxCell>
        <mxCell id="x69w11OwwkDyo-feMg2V-15" value="&lt;font style=&quot;font-size: 9px;&quot;&gt;20.10.4.0/24&lt;/font&gt;" style="text;strokeColor=none;fillColor=none;html=1;fontSize=9;fontStyle=1;verticalAlign=middle;align=center;" vertex="1" parent="1">
          <mxGeometry x="199.99999999999997" y="110" width="80" height="10" as="geometry" />
        </mxCell>
        <mxCell id="x69w11OwwkDyo-feMg2V-16" value="AS 10" style="text;strokeColor=none;fillColor=none;html=1;fontSize=9;fontStyle=1;verticalAlign=middle;align=center;fontColor=#FF0000;" vertex="1" parent="1">
          <mxGeometry x="100" y="100" width="100" height="40" as="geometry" />
        </mxCell>
        <mxCell id="x69w11OwwkDyo-feMg2V-17" value="&lt;font style=&quot;font-size: 9px;&quot;&gt;42.8.3.0/30&lt;/font&gt;" style="text;strokeColor=none;fillColor=none;html=1;fontSize=9;fontStyle=1;verticalAlign=middle;align=center;" vertex="1" parent="1">
          <mxGeometry x="50" y="350" width="80" height="10" as="geometry" />
        </mxCell>
        <mxCell id="x69w11OwwkDyo-feMg2V-18" value="&lt;font style=&quot;font-size: 9px;&quot;&gt;36.18.9.0/30&lt;/font&gt;" style="text;strokeColor=none;fillColor=none;html=1;fontSize=9;fontStyle=1;verticalAlign=middle;align=center;" vertex="1" parent="1">
          <mxGeometry x="230.82999999999998" y="320" width="80" height="10" as="geometry" />
        </mxCell>
        <mxCell id="x69w11OwwkDyo-feMg2V-19" value="&lt;font style=&quot;font-size: 9px;&quot;&gt;63.10.4.0/30,&lt;/font&gt;" style="text;strokeColor=none;fillColor=none;html=1;fontSize=9;fontStyle=1;verticalAlign=middle;align=center;" vertex="1" parent="1">
          <mxGeometry x="170.83" y="350" width="80" height="10" as="geometry" />
        </mxCell>
        <mxCell id="x69w11OwwkDyo-feMg2V-20" value="&lt;font style=&quot;font-size: 9px;&quot;&gt;63.10.5.1/24)&lt;/font&gt;" style="text;strokeColor=none;fillColor=none;html=1;fontSize=9;fontStyle=1;verticalAlign=middle;align=center;" vertex="1" parent="1">
          <mxGeometry x="220" y="405" width="80" height="10" as="geometry" />
        </mxCell>
        <mxCell id="x69w11OwwkDyo-feMg2V-21" value=".1" style="text;strokeColor=none;fillColor=none;html=1;fontSize=9;fontStyle=1;verticalAlign=middle;align=center;" vertex="1" parent="1">
          <mxGeometry x="88.33" y="340" width="80" height="10" as="geometry" />
        </mxCell>
        <mxCell id="x69w11OwwkDyo-feMg2V-22" value=".1" style="text;strokeColor=none;fillColor=none;html=1;fontSize=9;fontStyle=1;verticalAlign=middle;align=center;" vertex="1" parent="1">
          <mxGeometry x="120" y="350" width="80" height="10" as="geometry" />
        </mxCell>
        <mxCell id="x69w11OwwkDyo-feMg2V-23" value=".2" style="text;strokeColor=none;fillColor=none;html=1;fontSize=9;fontStyle=1;verticalAlign=middle;align=center;" vertex="1" parent="1">
          <mxGeometry x="150" y="370" width="80" height="10" as="geometry" />
        </mxCell>
        <mxCell id="x69w11OwwkDyo-feMg2V-24" value=".1" style="text;strokeColor=none;fillColor=none;html=1;fontSize=9;fontStyle=1;verticalAlign=middle;align=center;" vertex="1" parent="1">
          <mxGeometry x="168.33" y="405" width="80" height="10" as="geometry" />
        </mxCell>
        <mxCell id="x69w11OwwkDyo-feMg2V-25" value=".2" style="text;strokeColor=none;fillColor=none;html=1;fontSize=9;fontStyle=1;verticalAlign=middle;align=center;" vertex="1" parent="1">
          <mxGeometry x="200" y="425" width="80" height="10" as="geometry" />
        </mxCell>
        <mxCell id="x69w11OwwkDyo-feMg2V-26" value=".2" style="text;strokeColor=none;fillColor=none;html=1;fontSize=9;fontStyle=1;verticalAlign=middle;align=center;" vertex="1" parent="1">
          <mxGeometry x="30" y="390" width="80" height="10" as="geometry" />
        </mxCell>
        <mxCell id="x69w11OwwkDyo-feMg2V-27" value=".1" style="text;strokeColor=none;fillColor=none;html=1;fontSize=9;fontStyle=1;verticalAlign=middle;align=center;" vertex="1" parent="1">
          <mxGeometry x="130.83" y="325.26" width="80" height="10" as="geometry" />
        </mxCell>
        <mxCell id="x69w11OwwkDyo-feMg2V-28" value=".2" style="text;strokeColor=none;fillColor=none;html=1;fontSize=9;fontStyle=1;verticalAlign=middle;align=center;" vertex="1" parent="1">
          <mxGeometry x="310.83000000000004" y="325.26" width="80" height="10" as="geometry" />
        </mxCell>
        <mxCell id="x69w11OwwkDyo-feMg2V-29" value="AS 20" style="text;strokeColor=none;fillColor=none;html=1;fontSize=9;fontStyle=1;verticalAlign=middle;align=center;fontColor=#FF0000;" vertex="1" parent="1">
          <mxGeometry x="195" y="365" width="100" height="40" as="geometry" />
        </mxCell>
        <mxCell id="x69w11OwwkDyo-feMg2V-30" value="&lt;font style=&quot;font-size: 9px;&quot;&gt;120.3.8.0/30&lt;/font&gt;" style="text;strokeColor=none;fillColor=none;html=1;fontSize=9;fontStyle=1;verticalAlign=middle;align=center;" vertex="1" parent="1">
          <mxGeometry x="-10" y="480" width="80" height="10" as="geometry" />
        </mxCell>
        <mxCell id="x69w11OwwkDyo-feMg2V-31" value=".1" style="text;strokeColor=none;fillColor=none;html=1;fontSize=9;fontStyle=1;verticalAlign=middle;align=center;" vertex="1" parent="1">
          <mxGeometry x="10" y="545" width="80" height="10" as="geometry" />
        </mxCell>
        <mxCell id="x69w11OwwkDyo-feMg2V-32" value=".2" style="text;strokeColor=none;fillColor=none;html=1;fontSize=9;fontStyle=1;verticalAlign=middle;align=center;" vertex="1" parent="1">
          <mxGeometry x="10" y="430" width="80" height="10" as="geometry" />
        </mxCell>
        <mxCell id="x69w11OwwkDyo-feMg2V-33" value=".2" style="text;strokeColor=none;fillColor=none;html=1;fontSize=9;fontStyle=1;verticalAlign=middle;align=center;" vertex="1" parent="1">
          <mxGeometry x="48.85" y="405" width="80" height="10" as="geometry" />
        </mxCell>
        <mxCell id="x69w11OwwkDyo-feMg2V-34" value=".1" style="text;strokeColor=none;fillColor=none;html=1;fontSize=9;fontStyle=1;verticalAlign=middle;align=center;" vertex="1" parent="1">
          <mxGeometry x="31.67" y="430" width="80" height="10" as="geometry" />
        </mxCell>
        <mxCell id="x69w11OwwkDyo-feMg2V-35" value="&lt;font style=&quot;font-size: 9px;&quot;&gt;30.8.2.0/24&lt;/font&gt;" style="text;strokeColor=none;fillColor=none;html=1;fontSize=9;fontStyle=1;verticalAlign=middle;align=center;" vertex="1" parent="1">
          <mxGeometry x="400" y="325.26" width="80" height="10" as="geometry" />
        </mxCell>
        <mxCell id="x69w11OwwkDyo-feMg2V-36" value="&lt;font style=&quot;font-size: 9px;&quot;&gt;118.3.2.0/30&lt;/font&gt;" style="text;strokeColor=none;fillColor=none;html=1;fontSize=9;fontStyle=1;verticalAlign=middle;align=center;" vertex="1" parent="1">
          <mxGeometry x="370" y="430" width="80" height="10" as="geometry" />
        </mxCell>
        <mxCell id="x69w11OwwkDyo-feMg2V-37" value=".1" style="text;strokeColor=none;fillColor=none;html=1;fontSize=9;fontStyle=1;verticalAlign=middle;align=center;" vertex="1" parent="1">
          <mxGeometry x="360.00000000000006" y="325.26" width="80" height="10" as="geometry" />
        </mxCell>
        <mxCell id="x69w11OwwkDyo-feMg2V-38" value=".2" style="text;strokeColor=none;fillColor=none;html=1;fontSize=9;fontStyle=1;verticalAlign=middle;align=center;" vertex="1" parent="1">
          <mxGeometry x="350.00000000000006" y="350" width="80" height="10" as="geometry" />
        </mxCell>
        <mxCell id="x69w11OwwkDyo-feMg2V-39" value=".2" style="text;strokeColor=none;fillColor=none;html=1;fontSize=9;fontStyle=1;verticalAlign=middle;align=center;" vertex="1" parent="1">
          <mxGeometry x="390.00000000000006" y="350" width="80" height="10" as="geometry" />
        </mxCell>
        <mxCell id="x69w11OwwkDyo-feMg2V-40" value=".1" style="text;strokeColor=none;fillColor=none;html=1;fontSize=9;fontStyle=1;verticalAlign=middle;align=center;" vertex="1" parent="1">
          <mxGeometry x="334.00000000000006" y="506" width="80" height="10" as="geometry" />
        </mxCell>
        <mxCell id="x69w11OwwkDyo-feMg2V-41" value="AS 40" style="text;strokeColor=none;fillColor=none;html=1;fontSize=9;fontStyle=1;verticalAlign=middle;align=center;fontColor=#FF0000;" vertex="1" parent="1">
          <mxGeometry x="371.66999999999996" y="295" width="100" height="40" as="geometry" />
        </mxCell>
        <mxCell id="x69w11OwwkDyo-feMg2V-42" value="&lt;font style=&quot;font-size: 9px;&quot;&gt;103.38.10.0/24&lt;/font&gt;" style="text;strokeColor=none;fillColor=none;html=1;fontSize=9;fontStyle=1;verticalAlign=middle;align=center;" vertex="1" parent="1">
          <mxGeometry x="48.85" y="610" width="80" height="10" as="geometry" />
        </mxCell>
        <mxCell id="x69w11OwwkDyo-feMg2V-43" value=".1" style="text;strokeColor=none;fillColor=none;html=1;fontSize=9;fontStyle=1;verticalAlign=middle;align=center;" vertex="1" parent="1">
          <mxGeometry x="10" y="585" width="80" height="10" as="geometry" />
        </mxCell>
        <mxCell id="x69w11OwwkDyo-feMg2V-44" value=".1" style="text;strokeColor=none;fillColor=none;html=1;fontSize=9;fontStyle=1;verticalAlign=middle;align=center;" vertex="1" parent="1">
          <mxGeometry x="40" y="575" width="80" height="10" as="geometry" />
        </mxCell>
        <mxCell id="x69w11OwwkDyo-feMg2V-45" value=".2" style="text;strokeColor=none;fillColor=none;html=1;fontSize=9;fontStyle=1;verticalAlign=middle;align=center;" vertex="1" parent="1">
          <mxGeometry x="10" y="630" width="80" height="10" as="geometry" />
        </mxCell>
        <mxCell id="x69w11OwwkDyo-feMg2V-46" value="&lt;font style=&quot;font-size: 9px;&quot;&gt;61.10.3.0/30&lt;/font&gt;" style="text;strokeColor=none;fillColor=none;html=1;fontSize=9;fontStyle=1;verticalAlign=middle;align=center;" vertex="1" parent="1">
          <mxGeometry x="115" y="575" width="80" height="10" as="geometry" />
        </mxCell>
        <mxCell id="x69w11OwwkDyo-feMg2V-47" value=".2" style="text;strokeColor=none;fillColor=none;html=1;fontSize=9;fontStyle=1;verticalAlign=middle;align=center;" vertex="1" parent="1">
          <mxGeometry x="200" y="610" width="80" height="10" as="geometry" />
        </mxCell>
        <mxCell id="x69w11OwwkDyo-feMg2V-48" value="AS 50" style="text;strokeColor=none;fillColor=none;html=1;fontSize=9;fontStyle=1;verticalAlign=middle;align=center;fontColor=#FF0000;" vertex="1" parent="1">
          <mxGeometry x="-20" y="600" width="100" height="40" as="geometry" />
        </mxCell>
        <mxCell id="x69w11OwwkDyo-feMg2V-49" value="AS 60" style="text;strokeColor=none;fillColor=none;html=1;fontSize=9;fontStyle=1;verticalAlign=middle;align=center;fontColor=#FF0000;" vertex="1" parent="1">
          <mxGeometry x="288.33000000000004" y="625" width="100" height="40" as="geometry" />
        </mxCell>
        <mxCell id="x69w11OwwkDyo-feMg2V-50" value=".2" style="text;strokeColor=none;fillColor=none;html=1;fontSize=9;fontStyle=1;verticalAlign=middle;align=center;" vertex="1" parent="1">
          <mxGeometry x="215" y="590" width="80" height="10" as="geometry" />
        </mxCell>
        <mxCell id="x69w11OwwkDyo-feMg2V-51" value=".2" style="text;strokeColor=none;fillColor=none;html=1;fontSize=9;fontStyle=1;verticalAlign=middle;align=center;" vertex="1" parent="1">
          <mxGeometry x="220" y="550" width="80" height="10" as="geometry" />
        </mxCell>
        <mxCell id="x69w11OwwkDyo-feMg2V-52" value=".1" style="text;strokeColor=none;fillColor=none;html=1;fontSize=9;fontStyle=1;verticalAlign=middle;align=center;" vertex="1" parent="1">
          <mxGeometry x="310.83" y="615" width="80" height="10" as="geometry" />
        </mxCell>
        <mxCell id="x69w11OwwkDyo-feMg2V-53" value=".2" style="text;strokeColor=none;fillColor=none;html=1;fontSize=9;fontStyle=1;verticalAlign=middle;align=center;" vertex="1" parent="1">
          <mxGeometry x="254" y="615" width="80" height="10" as="geometry" />
        </mxCell>
        <mxCell id="x69w11OwwkDyo-feMg2V-54" value=".1" style="text;strokeColor=none;fillColor=none;html=1;fontSize=9;fontStyle=1;verticalAlign=middle;align=center;" vertex="1" parent="1">
          <mxGeometry x="250.83" y="525" width="80" height="10" as="geometry" />
        </mxCell>
        <mxCell id="x69w11OwwkDyo-feMg2V-55" value=".2" style="text;strokeColor=none;fillColor=none;html=1;fontSize=9;fontStyle=1;verticalAlign=middle;align=center;" vertex="1" parent="1">
          <mxGeometry x="310.83" y="525" width="80" height="10" as="geometry" />
        </mxCell>
        <mxCell id="x69w11OwwkDyo-feMg2V-56" value=".1" style="text;strokeColor=none;fillColor=none;html=1;fontSize=9;fontStyle=1;verticalAlign=middle;align=center;" vertex="1" parent="1">
          <mxGeometry x="334" y="550" width="80" height="10" as="geometry" />
        </mxCell>
        <mxCell id="x69w11OwwkDyo-feMg2V-57" value=".2" style="text;strokeColor=none;fillColor=none;html=1;fontSize=9;fontStyle=1;verticalAlign=middle;align=center;" vertex="1" parent="1">
          <mxGeometry x="334" y="590" width="80" height="10" as="geometry" />
        </mxCell>
        <mxCell id="x69w11OwwkDyo-feMg2V-58" value=".1" style="text;strokeColor=none;fillColor=none;html=1;fontSize=9;fontStyle=1;verticalAlign=middle;align=center;" vertex="1" parent="1">
          <mxGeometry x="360" y="525" width="80" height="10" as="geometry" />
        </mxCell>
        <mxCell id="x69w11OwwkDyo-feMg2V-59" value="&lt;font style=&quot;font-size: 9px;&quot;&gt;133.7.7.0/30&lt;/font&gt;" style="text;strokeColor=none;fillColor=none;html=1;fontSize=9;fontStyle=1;verticalAlign=middle;align=center;" vertex="1" parent="1">
          <mxGeometry x="140" y="525" width="80" height="10" as="geometry" />
        </mxCell>
        <mxCell id="x69w11OwwkDyo-feMg2V-60" value="&lt;font style=&quot;font-size: 9px;&quot;&gt;19.8.11.0/30&lt;/font&gt;" style="text;strokeColor=none;fillColor=none;html=1;fontSize=9;fontStyle=1;verticalAlign=middle;align=center;" vertex="1" parent="1">
          <mxGeometry x="280" y="600" width="80" height="10" as="geometry" />
        </mxCell>
        <mxCell id="x69w11OwwkDyo-feMg2V-61" value="&lt;font style=&quot;font-size: 9px;&quot;&gt;19.8.9.0/30&lt;/font&gt;" style="text;strokeColor=none;fillColor=none;html=1;fontSize=9;fontStyle=1;verticalAlign=middle;align=center;" vertex="1" parent="1">
          <mxGeometry x="280" y="540" width="80" height="10" as="geometry" />
        </mxCell>
        <mxCell id="x69w11OwwkDyo-feMg2V-62" value="&lt;font style=&quot;font-size: 9px;&quot;&gt;19.8.10.1/30&lt;/font&gt;" style="text;strokeColor=none;fillColor=none;html=1;fontSize=9;fontStyle=1;verticalAlign=middle;align=center;" vertex="1" parent="1">
          <mxGeometry x="310.83" y="567.5" width="80" height="10" as="geometry" />
        </mxCell>
        <mxCell id="x69w11OwwkDyo-feMg2V-63" value="&lt;font style=&quot;font-size: 9px;&quot;&gt;90.5.80.0/30&lt;/font&gt;" style="text;strokeColor=none;fillColor=none;html=1;fontSize=9;fontStyle=1;verticalAlign=middle;align=center;" vertex="1" parent="1">
          <mxGeometry x="122.41" y="470" width="80" height="10" as="geometry" />
        </mxCell>
        <mxCell id="x69w11OwwkDyo-feMg2V-64" value=".1" style="text;strokeColor=none;fillColor=none;html=1;fontSize=9;fontStyle=1;verticalAlign=middle;align=center;" vertex="1" parent="1">
          <mxGeometry x="215" y="510" width="80" height="10" as="geometry" />
        </mxCell>
        <mxCell id="x69w11OwwkDyo-feMg2V-65" value="&lt;font style=&quot;font-size: 9px;&quot;&gt;25.12.4.0/30&lt;/font&gt;" style="text;strokeColor=none;fillColor=none;html=1;fontSize=9;fontStyle=1;verticalAlign=middle;align=center;" vertex="1" parent="1">
          <mxGeometry x="400" y="515" width="80" height="10" as="geometry" />
        </mxCell>
        <mxCell id="x69w11OwwkDyo-feMg2V-66" value="AS 30" style="text;strokeColor=none;fillColor=none;html=1;fontSize=9;fontStyle=1;verticalAlign=middle;align=center;fontColor=#FF0000;" vertex="1" parent="1">
          <mxGeometry x="5.684341886080802e-14" y="370" width="100" height="40" as="geometry" />
        </mxCell>
        <mxCell id="x69w11OwwkDyo-feMg2V-67" value=".2" style="text;strokeColor=none;fillColor=none;html=1;fontSize=9;fontStyle=1;verticalAlign=middle;align=center;" vertex="1" parent="1">
          <mxGeometry x="444" y="530" width="80" height="10" as="geometry" />
        </mxCell>
        <mxCell id="x69w11OwwkDyo-feMg2V-68" value=".1" style="text;strokeColor=none;fillColor=none;html=1;fontSize=9;fontStyle=1;verticalAlign=middle;align=center;" vertex="1" parent="1">
          <mxGeometry x="490" y="525" width="80" height="10" as="geometry" />
        </mxCell>
        <mxCell id="x69w11OwwkDyo-feMg2V-69" value=".2" style="text;strokeColor=none;fillColor=none;html=1;fontSize=9;fontStyle=1;verticalAlign=middle;align=center;" vertex="1" parent="1">
          <mxGeometry x="538" y="525" width="80" height="10" as="geometry" />
        </mxCell>
        <mxCell id="x69w11OwwkDyo-feMg2V-70" value=".1" style="text;strokeColor=none;fillColor=none;html=1;fontSize=9;fontStyle=1;verticalAlign=middle;align=center;" vertex="1" parent="1">
          <mxGeometry x="580" y="530" width="80" height="10" as="geometry" />
        </mxCell>
        <mxCell id="x69w11OwwkDyo-feMg2V-71" value=".2" style="text;strokeColor=none;fillColor=none;html=1;fontSize=9;fontStyle=1;verticalAlign=middle;align=center;" vertex="1" parent="1">
          <mxGeometry x="650" y="525" width="80" height="10" as="geometry" />
        </mxCell>
        <mxCell id="x69w11OwwkDyo-feMg2V-72" value="&lt;font style=&quot;font-size: 9px;&quot;&gt;18.20.9.0/30&lt;/font&gt;" style="text;strokeColor=none;fillColor=none;html=1;fontSize=9;fontStyle=1;verticalAlign=middle;align=center;" vertex="1" parent="1">
          <mxGeometry x="510" y="505" width="80" height="10" as="geometry" />
        </mxCell>
        <mxCell id="x69w11OwwkDyo-feMg2V-73" value="&lt;font style=&quot;font-size: 9px;&quot;&gt;18.20.10.0/24&lt;/font&gt;" style="text;strokeColor=none;fillColor=none;html=1;fontSize=9;fontStyle=1;verticalAlign=middle;align=center;" vertex="1" parent="1">
          <mxGeometry x="620" y="510" width="80" height="10" as="geometry" />
        </mxCell>
      </root>
    </mxGraphModel>
  </diagram>
</mxfile>
